<?xml version="1.0" encoding="utf-8"?>
<!-- Generator: Adobe Illustrator 16.0.0, SVG Export Plug-In . SVG Version: 6.00 Build 0)  -->
<!DOCTYPE svg PUBLIC "-//W3C//DTD SVG 1.1//EN" "http://www.w3.org/Graphics/SVG/1.1/DTD/svg11.dtd">
<svg version="1.1" id="Layer_1" xmlns="http://www.w3.org/2000/svg" xmlns:xlink="http://www.w3.org/1999/xlink" x="0px" y="0px"
	 width="214.823px" height="171.376px" viewBox="0 0 214.823 171.376" enable-background="new 0 0 214.823 171.376"
	 xml:space="preserve">
<g>
	<g>
		<path d="M46.989,24.406c2.285,0,4.369,0.202,6.251,0.605s3.495,1.065,4.839,1.982c1.345,0.919,2.387,2.141,3.126,3.663
			c0.739,1.524,1.108,3.406,1.108,5.646c0,2.419-0.549,4.436-1.646,6.049c-1.099,1.613-2.722,2.935-4.873,3.965
			c2.958,0.852,5.164,2.342,6.621,4.469c1.455,2.129,2.184,4.694,2.184,7.696c0,2.419-0.471,4.515-1.411,6.285
			c-0.94,1.771-2.208,3.215-3.798,4.335c-1.591,1.12-3.405,1.949-5.443,2.486c-2.04,0.538-4.134,0.807-6.284,0.807H24.406V24.406
			H46.989z M45.645,43.831c1.882,0,3.428-0.447,4.638-1.344c1.21-0.896,1.814-2.353,1.814-4.369c0-1.12-0.202-2.039-0.604-2.756
			c-0.403-0.716-0.941-1.277-1.613-1.68c-0.672-0.403-1.445-0.683-2.318-0.84c-0.874-0.156-1.781-0.235-2.723-0.235h-9.88v11.225
			H45.645z M46.25,64.196c1.03,0,2.017-0.101,2.958-0.303c0.94-0.202,1.77-0.538,2.486-1.008s1.287-1.109,1.714-1.916
			c0.426-0.807,0.639-1.837,0.639-3.092c0-2.464-0.695-4.223-2.083-5.276c-1.39-1.052-3.227-1.58-5.512-1.58H34.958v13.174H46.25z"
			/>
		<path d="M67.891,76.697c0.985,0,1.849-0.191,2.588-0.571c0.739-0.381,1.109-1.222,1.109-2.521V37.647h9.544v36.429
			c0,1.792-0.191,3.337-0.571,4.638c-0.381,1.299-1.031,2.386-1.949,3.26c-0.919,0.874-2.162,1.522-3.73,1.949
			c-1.568,0.425-3.562,0.638-5.981,0.638c-1.121,0-2.128-0.09-3.024-0.269v-7.863C66.369,76.606,67.041,76.697,67.891,76.697z
			 M71.588,32.27v-7.864h9.544v7.864H71.588z"/>
		<path d="M89.602,47.494c0.85-2.262,2.061-4.189,3.629-5.78c1.568-1.59,3.449-2.823,5.645-3.697s4.66-1.311,7.395-1.311
			c2.732,0,5.209,0.437,7.426,1.311c2.219,0.874,4.111,2.107,5.68,3.697c1.568,1.591,2.777,3.518,3.629,5.78
			c0.852,2.263,1.277,4.783,1.277,7.561c0,2.779-0.426,5.288-1.277,7.528c-0.852,2.241-2.061,4.156-3.629,5.746
			c-1.568,1.591-3.461,2.812-5.68,3.663c-2.217,0.851-4.693,1.277-7.426,1.277c-2.734,0-5.199-0.427-7.395-1.277
			s-4.076-2.072-5.645-3.663c-1.568-1.59-2.779-3.505-3.629-5.746c-0.854-2.24-1.277-4.749-1.277-7.528
			C88.325,52.277,88.749,49.756,89.602,47.494z M103.917,24.406v7.864h-9.072v-7.864H103.917z M98.272,59.121
			c0.268,1.322,0.727,2.51,1.377,3.562c0.648,1.054,1.512,1.894,2.588,2.521c1.076,0.628,2.42,0.941,4.033,0.941
			s2.967-0.313,4.066-0.941c1.098-0.627,1.971-1.467,2.621-2.521c0.648-1.052,1.109-2.24,1.377-3.562
			c0.27-1.321,0.404-2.677,0.404-4.066c0-1.388-0.135-2.755-0.404-4.1c-0.268-1.344-0.729-2.531-1.377-3.562
			c-0.65-1.03-1.523-1.871-2.621-2.52c-1.1-0.649-2.453-0.975-4.066-0.975s-2.957,0.325-4.033,0.975s-1.939,1.49-2.588,2.52
			c-0.65,1.031-1.109,2.218-1.377,3.562c-0.27,1.345-0.404,2.712-0.404,4.1C97.868,56.444,98.002,57.8,98.272,59.121z
			 M117.762,24.406v7.864h-9.072v-7.864H117.762z"/>
		<path d="M139.538,37.647v6.452h0.135c0.447-1.075,1.053-2.072,1.814-2.991c0.762-0.918,1.637-1.703,2.621-2.352
			c0.986-0.649,2.039-1.153,3.16-1.513c1.119-0.358,2.285-0.538,3.494-0.538c0.627,0,1.322,0.112,2.084,0.336v8.872
			c-0.447-0.089-0.986-0.168-1.613-0.235s-1.232-0.101-1.814-0.101c-1.748,0-3.227,0.292-4.436,0.874
			c-1.211,0.583-2.186,1.378-2.924,2.386c-0.74,1.009-1.268,2.185-1.58,3.529c-0.314,1.344-0.471,2.801-0.471,4.369v15.66h-9.543
			V37.647H139.538z"/>
		<path d="M166.893,37.647v4.839h0.201c1.209-2.016,2.777-3.484,4.705-4.402c1.926-0.918,3.898-1.378,5.914-1.378
			c2.555,0,4.648,0.348,6.285,1.042c1.635,0.695,2.924,1.658,3.863,2.891c0.941,1.232,1.602,2.733,1.984,4.503
			c0.379,1.771,0.57,3.73,0.57,5.881v21.373h-9.543V52.77c0-2.867-0.449-5.007-1.346-6.418c-0.896-1.412-2.486-2.117-4.771-2.117
			c-2.6,0-4.48,0.772-5.646,2.318s-1.746,4.09-1.746,7.629v18.214h-9.545V37.647H166.893z"/>
	</g>
	<g>
		<path d="M35.499,134.066c0.582,1.121,1.355,2.028,2.319,2.722c0.963,0.695,2.094,1.21,3.394,1.546
			c1.299,0.336,2.643,0.504,4.033,0.504c0.941,0,1.949-0.078,3.024-0.235c1.075-0.157,2.083-0.459,3.024-0.907
			c0.941-0.448,1.725-1.064,2.353-1.849c0.627-0.783,0.94-1.781,0.94-2.991c0-1.299-0.414-2.352-1.243-3.159
			c-0.829-0.806-1.915-1.479-3.26-2.016c-1.344-0.538-2.868-1.008-4.57-1.412c-1.703-0.403-3.428-0.851-5.175-1.344
			c-1.793-0.447-3.541-0.997-5.243-1.646c-1.703-0.649-3.226-1.489-4.57-2.521c-1.344-1.03-2.431-2.319-3.26-3.865
			s-1.243-3.417-1.243-5.612c0-2.464,0.526-4.604,1.58-6.419c1.052-1.814,2.43-3.327,4.133-4.537c1.702-1.209,3.63-2.105,5.78-2.688
			c2.151-0.582,4.302-0.874,6.452-0.874c2.509,0,4.917,0.281,7.226,0.84c2.308,0.561,4.356,1.468,6.149,2.722
			c1.792,1.255,3.215,2.856,4.268,4.806s1.58,4.313,1.58,7.091H52.974c-0.091-1.434-0.394-2.621-0.907-3.562
			c-0.516-0.941-1.199-1.68-2.051-2.218c-0.852-0.537-1.826-0.917-2.924-1.143c-1.098-0.224-2.296-0.336-3.595-0.336
			c-0.852,0-1.704,0.091-2.554,0.269c-0.852,0.179-1.625,0.494-2.318,0.941c-0.695,0.448-1.267,1.008-1.714,1.681
			c-0.449,0.672-0.672,1.523-0.672,2.554c0,0.941,0.178,1.703,0.538,2.285c0.358,0.583,1.063,1.121,2.117,1.613
			c1.052,0.493,2.509,0.986,4.369,1.479c1.859,0.493,4.29,1.12,7.292,1.882c0.896,0.18,2.14,0.504,3.73,0.975
			c1.59,0.471,3.169,1.221,4.738,2.251c1.567,1.031,2.924,2.409,4.066,4.133c1.143,1.726,1.714,3.932,1.714,6.621
			c0,2.196-0.427,4.234-1.277,6.116c-0.852,1.882-2.117,3.506-3.797,4.873c-1.681,1.368-3.765,2.432-6.251,3.193
			c-2.487,0.761-5.366,1.143-8.637,1.143c-2.645,0-5.209-0.326-7.696-0.975s-4.683-1.668-6.586-3.058
			c-1.905-1.389-3.417-3.159-4.537-5.31c-1.12-2.151-1.658-4.705-1.613-7.662h10.216C34.625,131.58,34.916,132.947,35.499,134.066z"
			/>
		<path d="M89.133,111.147v6.385h-6.99v17.207c0,1.613,0.269,2.688,0.807,3.226c0.537,0.538,1.612,0.807,3.226,0.807
			c0.538,0,1.053-0.022,1.546-0.067c0.492-0.044,0.963-0.111,1.412-0.202v7.393c-0.807,0.135-1.704,0.224-2.689,0.269
			c-0.985,0.044-1.949,0.067-2.89,0.067c-1.479,0-2.88-0.101-4.2-0.302c-1.322-0.202-2.487-0.594-3.496-1.177
			c-1.008-0.582-1.804-1.411-2.386-2.486c-0.583-1.076-0.874-2.487-0.874-4.234v-20.5h-5.779v-6.385h5.779v-10.418h9.545v10.418
			H89.133z"/>
		<path d="M117.227,145.895v-4.839h-0.203c-1.209,2.016-2.777,3.473-4.703,4.369c-1.928,0.896-3.898,1.344-5.916,1.344
			c-2.553,0-4.648-0.336-6.283-1.008c-1.637-0.672-2.924-1.624-3.865-2.856c-0.941-1.232-1.602-2.732-1.982-4.503
			c-0.381-1.77-0.572-3.73-0.572-5.881v-21.373h9.545v19.626c0,2.868,0.447,5.007,1.344,6.418s2.486,2.117,4.771,2.117
			c2.6,0,4.48-0.773,5.646-2.319c1.164-1.546,1.748-4.088,1.748-7.628v-18.214h9.543v34.748H117.227z"/>
		<path d="M142.631,111.147v6.452h0.135c0.447-1.075,1.053-2.072,1.814-2.991c0.762-0.918,1.635-1.703,2.621-2.352
			c0.984-0.649,2.039-1.153,3.158-1.513c1.121-0.358,2.287-0.538,3.496-0.538c0.627,0,1.32,0.112,2.084,0.336v8.872
			c-0.449-0.089-0.986-0.168-1.613-0.235c-0.629-0.067-1.232-0.101-1.814-0.101c-1.748,0-3.227,0.292-4.438,0.874
			c-1.209,0.583-2.184,1.378-2.922,2.386c-0.74,1.009-1.268,2.185-1.58,3.529c-0.314,1.344-0.471,2.801-0.471,4.369v15.66h-9.545
			v-34.748H142.631z"/>
		<path d="M168.709,137.561c1.434,1.39,3.494,2.083,6.184,2.083c1.926,0,3.584-0.481,4.973-1.445
			c1.389-0.963,2.24-1.983,2.555-3.059h8.402c-1.346,4.167-3.406,7.148-6.184,8.939c-2.779,1.793-6.141,2.688-10.082,2.688
			c-2.734,0-5.197-0.437-7.393-1.311c-2.197-0.874-4.057-2.117-5.578-3.73c-1.525-1.613-2.701-3.539-3.529-5.78
			c-0.83-2.24-1.244-4.705-1.244-7.393c0-2.598,0.426-5.018,1.277-7.259c0.852-2.24,2.061-4.177,3.629-5.814
			c1.568-1.635,3.439-2.924,5.613-3.864c2.172-0.941,4.58-1.412,7.225-1.412c2.957,0,5.533,0.571,7.729,1.714s4,2.678,5.41,4.604
			c1.412,1.927,2.432,4.123,3.059,6.587c0.627,2.465,0.852,5.041,0.672,7.729h-25.068
			C166.493,133.932,167.276,136.172,168.709,137.561z M179.497,119.28c-1.143-1.254-2.879-1.882-5.209-1.882
			c-1.523,0-2.789,0.258-3.797,0.772c-1.008,0.516-1.814,1.154-2.42,1.916c-0.604,0.762-1.031,1.568-1.277,2.419
			c-0.246,0.852-0.393,1.613-0.436,2.286h15.525C181.434,122.372,180.639,120.535,179.497,119.28z"/>
	</g>
	<path d="M212.292,0h-9.672H12.203H0v12.203v146.97v8.152v4.051h214.823v-4.051v-8.152V0H212.292z M12.203,159.173V12.203H202.62
		v146.97H12.203z"/>
</g>
</svg>
